# xmcd CD database file
#
# Track frame offsets:
#	150
#	21641
#	43223
#	69329
#	90420
#	110168
#	129009
#	151641
#	173860
#	198304
#	222275
#	243263
#
# Disc length: 3460 seconds
#
# Revision: 0
# Processed by: cddbd v1.5.1PL2 Copyright (c) Steve Scherf et al.
# Submitted via: CDex 1.50beta8
#
DISCID=9d0d820c
DTITLE=Ruppina - Ruppina BEST
DYEAR=2005
DGENRE=JPop
TTITLE0=Free Will
TTITLE1=violet flow
TTITLE2=in the name of love
TTITLE3=Thousand Lights
TTITLE4=FAITH
TTITLE5=Proudly
TTITLE6=Why?
TTITLE7=crescent
TTITLE8=Repent
TTITLE9=You Are
TTITLE10=brand-new days
TTITLE11=If〜もしもあの時、あの場所で〜
EXTD=YEAR: 2005
EXTT0=
EXTT1=
EXTT2=
EXTT3=
EXTT4=
EXTT5=
EXTT6=
EXTT7=
EXTT8=
EXTT9=
EXTT10=
EXTT11=
PLAYORDER=
